<?xml version="1.0" encoding="utf-8"?>
<!-- Generator: Adobe Illustrator 15.1.0, SVG Export Plug-In . SVG Version: 6.00 Build 0)  -->
<!DOCTYPE svg PUBLIC "-//W3C//DTD SVG 1.1//EN" "http://www.w3.org/Graphics/SVG/1.1/DTD/svg11.dtd">
<svg version="1.1" id="Capa_1" xmlns="http://www.w3.org/2000/svg" xmlns:xlink="http://www.w3.org/1999/xlink" x="0px" y="0px"
	 width="40px" height="39.021px" viewBox="358.416 355.014 40 39.021" enable-background="new 358.416 355.014 40 39.021"
	 xml:space="preserve">
<g>
	<path fill="#222222" d="M395.733,364.975c-1.789-3.064-4.215-5.49-7.278-7.278c-3.064-1.789-6.41-2.683-10.039-2.683
		s-6.976,0.894-10.039,2.683c-3.064,1.788-5.49,4.214-7.278,7.278s-2.683,6.41-2.683,10.038c0,4.358,1.271,8.276,3.815,11.758
		c2.543,3.48,5.828,5.89,9.856,7.227c0.469,0.087,0.815,0.025,1.041-0.183s0.339-0.469,0.339-0.78c0-0.053-0.005-0.521-0.014-1.406
		c-0.009-0.886-0.013-1.658-0.013-2.317l-0.599,0.104c-0.382,0.069-0.864,0.1-1.445,0.091c-0.582-0.008-1.186-0.068-1.811-0.183
		c-0.625-0.112-1.206-0.372-1.745-0.78c-0.537-0.408-0.92-0.942-1.146-1.602l-0.26-0.599c-0.174-0.399-0.447-0.843-0.82-1.328
		c-0.373-0.486-0.751-0.816-1.133-0.989l-0.183-0.131c-0.121-0.087-0.234-0.191-0.338-0.313c-0.104-0.122-0.183-0.243-0.234-0.365
		c-0.053-0.121-0.009-0.222,0.13-0.3c0.14-0.078,0.391-0.116,0.756-0.116l0.521,0.078c0.347,0.069,0.776,0.277,1.289,0.625
		c0.512,0.347,0.933,0.798,1.263,1.354c0.399,0.712,0.881,1.255,1.445,1.628c0.563,0.373,1.133,0.56,1.705,0.56
		c0.573,0,1.067-0.044,1.484-0.13c0.417-0.087,0.808-0.218,1.172-0.391c0.156-1.164,0.582-2.058,1.276-2.683
		c-0.989-0.104-1.879-0.261-2.67-0.469c-0.789-0.209-1.605-0.547-2.447-1.017c-0.842-0.468-1.541-1.05-2.097-1.744
		c-0.555-0.694-1.011-1.606-1.367-2.734c-0.355-1.129-0.533-2.431-0.533-3.906c0-2.102,0.686-3.889,2.058-5.365
		c-0.643-1.579-0.582-3.35,0.182-5.312c0.504-0.156,1.25-0.039,2.24,0.352c0.989,0.391,1.714,0.725,2.174,1.002
		s0.829,0.513,1.107,0.704c1.614-0.451,3.281-0.678,5-0.678s3.385,0.227,5,0.678l0.989-0.625c0.677-0.417,1.476-0.799,2.396-1.146
		c0.92-0.347,1.624-0.442,2.11-0.286c0.781,1.962,0.851,3.732,0.208,5.313c1.371,1.476,2.058,3.264,2.058,5.364
		c0,1.476-0.179,2.782-0.534,3.919c-0.355,1.138-0.815,2.049-1.379,2.734c-0.565,0.687-1.269,1.264-2.11,1.732
		c-0.842,0.468-1.658,0.807-2.448,1.016c-0.79,0.208-1.68,0.364-2.669,0.469c0.902,0.781,1.354,2.014,1.354,3.698v5.494
		c0,0.312,0.108,0.572,0.326,0.78c0.217,0.208,0.56,0.27,1.028,0.183c4.028-1.337,7.313-3.745,9.856-7.227
		c2.543-3.48,3.815-7.399,3.815-11.758C398.415,371.385,397.521,368.039,395.733,364.975z"/>
</g>
</svg>
