<?xml version="1.0" encoding="utf-8"?>
<!-- Generator: Adobe Illustrator 15.1.0, SVG Export Plug-In . SVG Version: 6.00 Build 0)  -->
<!DOCTYPE svg PUBLIC "-//W3C//DTD SVG 1.1//EN" "http://www.w3.org/Graphics/SVG/1.1/DTD/svg11.dtd">
<svg version="1.1" id="Capa_1" xmlns="http://www.w3.org/2000/svg" xmlns:xlink="http://www.w3.org/1999/xlink" x="0px" y="0px"
	 width="40px" height="40px" viewBox="390.338 390.34 40 40" enable-background="new 390.338 390.34 40 40" xml:space="preserve">
<g>
	<path id="LinkedIn__x28_alt_x29_" fill="#222222" d="M427.384,390.34h-34.09c-1.633,0-2.956,1.282-2.956,2.866v34.267
		c0,1.583,1.323,2.867,2.956,2.867h34.09c1.633,0,2.954-1.285,2.954-2.867v-34.267C430.338,391.624,429.017,390.34,427.384,390.34z
		 M402.465,423.824h-6.044v-18.061h6.044V423.824z M399.443,403.296h-0.041c-2.026,0-3.34-1.387-3.34-3.122
		c0-1.77,1.353-3.118,3.419-3.118c2.067,0,3.339,1.348,3.379,3.118C402.86,401.911,401.55,403.296,399.443,403.296z
		 M424.251,423.824h-6.042v-9.663c0-2.428-0.875-4.085-3.061-4.085c-1.671,0-2.664,1.118-3.099,2.197
		c-0.162,0.385-0.202,0.925-0.202,1.463v10.087h-6.041c0,0,0.079-16.366,0-18.06h6.042v2.561c0.802-1.23,2.235-2.985,5.443-2.985
		c3.978,0,6.959,2.579,6.959,8.13V423.824L424.251,423.824z M411.81,408.381c0.011-0.018,0.024-0.038,0.039-0.058v0.058H411.81z"/>
</g>
</svg>
