<?xml version="1.0" encoding="utf-8"?>
<!-- Generator: Adobe Illustrator 15.1.0, SVG Export Plug-In . SVG Version: 6.00 Build 0)  -->
<!DOCTYPE svg PUBLIC "-//W3C//DTD SVG 1.1//EN" "http://www.w3.org/Graphics/SVG/1.1/DTD/svg11.dtd">
<svg version="1.1" id="Capa_1" xmlns="http://www.w3.org/2000/svg" xmlns:xlink="http://www.w3.org/1999/xlink" x="0px" y="0px"
	 width="40px" height="32.49px" viewBox="572.119 612.166 40 32.49" enable-background="new 572.119 612.166 40 32.49"
	 xml:space="preserve">
<g>
	<g>
		<path fill="#222222" d="M612.119,616.01c-1.473,0.652-3.051,1.096-4.711,1.293c1.694-1.016,2.991-2.625,3.606-4.538
			c-1.589,0.94-3.345,1.623-5.214,1.992c-1.497-1.596-3.626-2.591-5.989-2.591c-4.532,0-8.205,3.674-8.205,8.203
			c0,0.643,0.071,1.27,0.212,1.869c-6.818-0.343-12.865-3.609-16.911-8.572c-0.708,1.209-1.109,2.618-1.109,4.123
			c0,2.847,1.449,5.36,3.648,6.83c-1.345-0.047-2.609-0.416-3.717-1.031v0.103c0,3.975,2.83,7.292,6.581,8.046
			c-0.688,0.186-1.412,0.288-2.162,0.288c-0.529,0-1.042-0.053-1.544-0.152c1.044,3.262,4.074,5.634,7.663,5.698
			c-2.807,2.201-6.347,3.508-10.191,3.508c-0.662,0-1.313-0.041-1.957-0.112c3.633,2.331,7.944,3.69,12.579,3.69
			c15.094,0,23.345-12.502,23.345-23.346l-0.028-1.062C609.627,619.099,611.022,617.654,612.119,616.01z"/>
	</g>
</g>
</svg>
